# xmcd CD database file
#
# Track frame offsets:
#	150
#	14078
#	28313
#	43028
#	57351
#	71771
#	86088
#	99896
#	114699
#	128834
#	141772
#	154933
#	168123
#	180895
#	195364
#	209494
#	222887
#	236351
#	249361
#	263258
#	276683
#	291471
#	306341
#	321280
#	334140
#
# Disc length: 4631 seconds
#
# Revision: 0
# Processed by: cddbd v1.5.2PL0 Copyright (c) Steve Scherf et al.
# Submitted via: CDex 1.70beta2
#
DISCID=77121519
DTITLE=Blind Willie McTell - The Blues
DYEAR=2013
DGENRE=Blues
TTITLE0=Georgia Rag
TTITLE1=Cold Winter Day
TTITLE2=Broke Down Engine
TTITLE3=Death Cell Blues
TTITLE4=Experience Blues (with Ruth Willis)
TTITLE5=Atlanta Strut
TTITLE6=It's Your Time to Worry
TTITLE7=Lonesome Blues (with Ruby Glaze)
TTITLE8=Searching the Desert for the Blues
TTITLE9=Lord, Send Me an Angel
TTITLE10=Love-makin' Mama
TTITLE11=Don't You See How This World Made a Change
TTITLE12=You Was Born to Die (with Ruby Glaze)
TTITLE13=Low Down Blues (with Ruth Willis)
TTITLE14=Mama, Let Me Scoop For You (with Ruby Glaze)
TTITLE15=Death Room Blues
TTITLE16=My Baby's Gone
TTITLE17=Painful Blues (with Ruth Willis)
TTITLE18=Rollin' Mama Blues (with Ruby Glaze)
TTITLE19=Lord Have Mercy If You Please
TTITLE20=Rough Alley Blues (with Ruth WIllis)
TTITLE21=Savannah Blues
TTITLE22=Low Rider's Blues
TTITLE23=It's a Good Little Thing
TTITLE24=Warm It Up To Me
EXTD=YEAR: 2013
EXTT0=
EXTT1=
EXTT2=
EXTT3=
EXTT4=
EXTT5=
EXTT6=
EXTT7=
EXTT8=
EXTT9=
EXTT10=
EXTT11=
EXTT12=
EXTT13=
EXTT14=
EXTT15=
EXTT16=
EXTT17=
EXTT18=
EXTT19=
EXTT20=
EXTT21=
EXTT22=
EXTT23=
EXTT24=
PLAYORDER=
